HIERARCHY
ROOT Hips
{
	OFFSET -0.001795 -0.223333 0.028219
	CHANNELS 6 Xposition Yposition Zposition Zrotation Yrotation Xrotation 
	JOINT LeftUpLeg
	{
		OFFSET 0.069520 -0.091406 -0.006815
		CHANNELS 3 Zrotation Yrotation Xrotation
		JOINT LeftLeg
		{
			OFFSET 0.034277 -0.375199 -0.004496
			CHANNELS 3 Zrotation Yrotation Xrotation
			JOINT LeftFoot
			{
				OFFSET -0.013596 -0.397961 -0.043693
				CHANNELS 3 Zrotation Yrotation Xrotation
				JOINT LeftToe
				{
					OFFSET 0.026358 -0.055791 0.119288
					CHANNELS 3 Zrotation Yrotation Xrotation
					End Site
					{
						OFFSET 0.000000 0.000000 0.000000
					}
				}
			}
		}
	}
	JOINT RightUpLeg
	{
		OFFSET -0.067670 -0.090522 -0.004320
		CHANNELS 3 Zrotation Yrotation Xrotation
		JOINT RightLeg
		{
			OFFSET -0.038290 -0.382569 -0.008850
			CHANNELS 3 Zrotation Yrotation Xrotation
			JOINT RightFoot
			{
				OFFSET 0.015774 -0.398415 -0.042312
				CHANNELS 3 Zrotation Yrotation Xrotation
				JOINT RightToe
				{
					OFFSET -0.025372 -0.048144 0.123348
					CHANNELS 3 Zrotation Yrotation Xrotation
					End Site
					{
						OFFSET 0.000000 0.000000 0.000000
					}
				}
			}
		}
	}
	JOINT Spine
	{
		OFFSET -0.002533 0.108963 -0.026696
		CHANNELS 3 Zrotation Yrotation Xrotation
		JOINT Spine1
		{
			OFFSET 0.005487 0.135180 0.001092
			CHANNELS 3 Zrotation Yrotation Xrotation
			JOINT Spine2
			{
				OFFSET 0.001457 0.052922 0.025425
				CHANNELS 3 Zrotation Yrotation Xrotation
				JOINT Neck
				{
					OFFSET -0.002778 0.213870 -0.042857
					CHANNELS 3 Zrotation Yrotation Xrotation
					JOINT Head
					{
						OFFSET 0.005152 0.064970 0.051349
						CHANNELS 3 Zrotation Yrotation Xrotation
						End Site
						{
							OFFSET 0.000000 0.000000 0.000000
						}
					}
				}
				JOINT LeftShoulder
				{
					OFFSET 0.078845 0.121749 -0.034090
					CHANNELS 3 Zrotation Yrotation Xrotation
					JOINT LeftArm
					{
						OFFSET 0.090977 0.030469 -0.008868
						CHANNELS 3 Zrotation Yrotation Xrotation
						JOINT LeftForeArm
						{
							OFFSET 0.259612 -0.012772 -0.027456
							CHANNELS 3 Zrotation Yrotation Xrotation
							JOINT LeftHand
							{
								OFFSET 0.249234 0.008986 -0.001171
								CHANNELS 3 Zrotation Yrotation Xrotation
								End Site
								{
									OFFSET 0.000000 0.000000 0.000000
								}
							}
						}
					}
				}
				JOINT RightShoulder
				{
					OFFSET -0.081759 0.118833 -0.038615
					CHANNELS 3 Zrotation Yrotation Xrotation
					JOINT RightArm
					{
						OFFSET -0.096012 0.032551 -0.009143
						CHANNELS 3 Zrotation Yrotation Xrotation
						JOINT RightForeArm
						{
							OFFSET -0.253742 -0.013329 -0.021401
							CHANNELS 3 Zrotation Yrotation Xrotation
							JOINT RightHand
							{
								OFFSET -0.255298 0.007772 -0.005559
								CHANNELS 3 Zrotation Yrotation Xrotation
								End Site
								{
									OFFSET 0.000000 0.000000 0.000000
								}
							}
						}
					}
				}
			}
		}
	}
}
MOTION
Frames: 5
Frame Time: 0.05000000
14.388668 0.420903 0.919937 -153.069227 -26.422093 154.174644 -109.748166 -9.806545 -85.590749 146.695672 26.146498 -5.410603 -63.643100 -69.336012 42.076059 0.000000 0.000000 0.000000 -119.457660 22.656534 -73.743974 122.545979 29.861924 -13.797289 -74.814309 -52.744754 86.929753 0.000000 0.000000 0.000000 39.939645 24.640910 49.229694 -1.446226 -0.645276 -21.220201 -22.348988 -30.320396 43.722115 5.040562 1.038908 -3.727929 0.000000 0.000000 0.000000 -4.982078 -20.737511 30.352900 -21.325451 -41.117666 8.970448 18.245835 -8.164087 -1.161949 0.000000 0.000000 0.000000 -3.650260 24.099475 -1.535792 38.851175 34.891385 -2.238243 -66.324491 63.107801 -86.287067 0.000000 0.000000 0.000000 
14.546954 0.438835 -0.142311 -147.827742 -40.077017 170.821546 -121.506102 -22.950776 -76.677009 148.879667 -13.186248 -14.860949 -13.495068 -37.298574 -7.863081 0.000000 0.000000 0.000000 -160.676445 32.877605 -67.648699 95.916477 29.170305 -69.579335 -57.684724 -51.165048 65.055756 0.000000 0.000000 0.000000 19.505404 4.922672 13.473960 -5.400653 0.134602 -15.379835 -10.112657 -6.919990 40.604868 6.218280 2.945759 -1.046958 0.000000 0.000000 0.000000 -8.649593 -21.802113 36.223993 -13.670676 -40.343371 3.681450 16.651516 -4.332686 -0.659054 0.000000 0.000000 0.000000 0.578474 27.031311 -10.644472 31.990614 29.399563 0.599290 -43.612644 59.761333 -52.794793 0.000000 0.000000 0.000000 
14.641091 0.459540 -1.088279 -146.023909 -49.025502 174.444574 -99.718260 -28.384849 -90.226635 147.137402 -44.623048 -5.205439 -6.707799 -28.827035 -15.586654 0.000000 0.000000 0.000000 -164.057536 33.267472 -61.419278 83.339422 22.137119 -88.227718 -71.286002 -48.339204 83.495814 0.000000 0.000000 0.000000 16.314503 1.382017 3.975533 -5.089155 0.845171 -11.566133 -6.736490 -2.749110 41.400890 5.296878 -0.188863 -2.537100 0.000000 0.000000 0.000000 -5.986407 -26.251995 31.501972 -17.095189 -37.837933 4.350062 18.738556 -7.345152 -1.091906 0.000000 0.000000 0.000000 1.416627 31.239691 -4.867218 19.850249 29.774661 -1.431127 -36.429351 43.682795 -31.359479 0.000000 0.000000 0.000000 
14.664999 0.479201 -2.014799 -144.716864 -58.273132 179.441415 -85.297313 -26.767140 -95.549954 125.896053 -66.806236 17.818557 -4.601374 -15.283623 -8.542405 0.000000 0.000000 0.000000 -160.794974 31.212813 -53.900587 81.624250 18.063001 -94.805922 -78.003691 -46.904505 88.998393 0.000000 0.000000 0.000000 15.125635 0.810942 -5.960734 -5.348037 1.522466 -8.965519 -5.297569 -2.094373 41.271844 7.544178 -1.745116 -0.265699 0.000000 0.000000 0.000000 -4.048572 -27.386221 26.619621 -16.923594 -37.892613 4.320952 18.807157 -7.039271 -0.928158 0.000000 0.000000 0.000000 7.151410 35.500784 -5.141935 16.819451 24.016064 0.096663 -27.596373 37.937534 -18.882913 0.000000 0.000000 0.000000 
14.587153 0.499444 -2.955197 -151.433098 -62.289425 -169.625316 -71.357732 -19.142244 -101.720008 87.964833 -68.722722 55.078542 -5.804396 -21.542647 -7.027472 0.000000 0.000000 0.000000 -158.930278 24.308738 -51.909166 82.080101 16.028379 -95.104994 -87.980870 -49.402435 89.856585 0.000000 0.000000 0.000000 12.352824 1.660881 -12.982685 -3.447745 1.114535 -9.009356 -4.510220 -2.953558 43.290555 10.036059 1.125852 8.889197 0.000000 0.000000 0.000000 -7.106843 -25.393980 27.209441 -11.580282 -38.566954 2.077031 19.021746 -7.569660 -1.074391 0.000000 0.000000 0.000000 13.916192 38.604137 -9.051893 11.169162 21.315271 0.160953 -12.324379 34.792706 -7.680500 0.000000 0.000000 0.000000 
